<?xml version="1.0" encoding="UTF-8" standalone="no"?>
<svg width="38px" height="50px" viewBox="0 0 38 50" version="1.1" xmlns="http://www.w3.org/2000/svg" xmlns:xlink="http://www.w3.org/1999/xlink">
    <!-- Generator: Sketch 41 (35326) - http://www.bohemiancoding.com/sketch -->
    <title>Artboard</title>
    <desc>Created with Sketch.</desc>
    <defs></defs>
    <g id="Page-1" stroke="none" stroke-width="1" fill="none" fill-rule="evenodd">
        <g id="Artboard" fill="#000000">
            <g id="noun_732893_cc">
                <g id="Group">
                    <g id="Shape">
                        <path d="M37,12.5 C30.659,12.5 25.5,7.341 25.5,1 C25.5,0.724 25.276,0.5 25,0.5 L13,0.5 C12.724,0.5 12.5,0.724 12.5,1 C12.5,7.341 7.341,12.5 1,12.5 C0.724,12.5 0.5,12.724 0.5,13 L0.5,25 C0.5,36.173 17.964,48.872 18.708,49.407 C18.795,49.469 18.897,49.5 19,49.5 C19.103,49.5 19.205,49.469 19.292,49.406 C20.035,48.871 37.5,36.173 37.5,25 L37.5,13 C37.5,12.724 37.276,12.5 37,12.5 Z M36.5,25 C36.5,34.9 21.312,46.649 19,48.378 C16.688,46.648 1.5,34.903 1.5,25 L1.5,13.49 C7.996,13.233 13.233,7.995 13.49,1.5 L24.51,1.5 C24.767,7.996 30.004,13.233 36.5,13.49 L36.5,25 L36.5,25 Z"></path>
                        <path d="M26.646,20.646 L17,30.293 L13.354,26.647 C13.159,26.452 12.842,26.452 12.647,26.647 C12.452,26.842 12.452,27.159 12.647,27.354 L16.647,31.354 C16.744,31.451 16.872,31.5 17,31.5 C17.128,31.5 17.256,31.451 17.354,31.354 L27.354,21.354 C27.549,21.159 27.549,20.842 27.354,20.647 C27.159,20.452 26.842,20.451 26.646,20.646 Z"></path>
                    </g>
                </g>
            </g>
        </g>
    </g>
</svg>