<?xml version="1.0" encoding="UTF-8" standalone="no"?>
<svg width="38px" height="50px" viewBox="0 0 38 50" version="1.1" xmlns="http://www.w3.org/2000/svg" xmlns:xlink="http://www.w3.org/1999/xlink">
    <!-- Generator: Sketch 41 (35326) - http://www.bohemiancoding.com/sketch -->
    <title>Artboard Copy</title>
    <desc>Created with Sketch.</desc>
    <defs></defs>
    <g id="Page-1" stroke="none" stroke-width="1" fill="none" fill-rule="evenodd">
        <g id="Artboard-Copy" fill="#000000">
            <g id="noun_732872_cc">
                <g id="Group">
                    <g id="Shape">
                        <path d="M37,0.5 L1,0.5 C0.724,0.5 0.5,0.724 0.5,1 L0.5,49 C0.5,49.276 0.724,49.5 1,49.5 L37,49.5 C37.276,49.5 37.5,49.276 37.5,49 L37.5,1 C37.5,0.724 37.276,0.5 37,0.5 Z M36.5,48.5 L1.5,48.5 L1.5,1.5 L36.5,1.5 L36.5,48.5 Z"></path>
                        <path d="M23,24.5 C19.416,24.5 16.5,27.416 16.5,31 C16.5,33.689 18.142,36.003 20.477,36.99 L18.526,42.842 C18.439,43.104 18.58,43.387 18.842,43.475 C18.895,43.492 18.948,43.5 19,43.5 C19.209,43.5 19.404,43.367 19.474,43.158 L21.428,37.3 C21.933,37.426 22.457,37.5 23,37.5 C23.543,37.5 24.068,37.426 24.572,37.3 L26.525,43.158 C26.596,43.367 26.791,43.5 27,43.5 C27.053,43.5 27.105,43.492 27.158,43.475 C27.42,43.387 27.561,43.104 27.474,42.842 L25.523,36.989 C27.858,36.002 29.5,33.689 29.5,31 C29.5,27.416 26.584,24.5 23,24.5 Z M23,36.5 C19.967,36.5 17.5,34.032 17.5,31 C17.5,27.968 19.967,25.5 23,25.5 C26.032,25.5 28.5,27.968 28.5,31 C28.5,34.032 26.032,36.5 23,36.5 Z"></path>
                        <path d="M9,7.5 L29,7.5 C29.276,7.5 29.5,7.276 29.5,7 C29.5,6.724 29.276,6.5 29,6.5 L9,6.5 C8.724,6.5 8.5,6.724 8.5,7 C8.5,7.276 8.724,7.5 9,7.5 Z"></path>
                        <path d="M9,13.5 L29,13.5 C29.276,13.5 29.5,13.276 29.5,13 C29.5,12.724 29.276,12.5 29,12.5 L9,12.5 C8.724,12.5 8.5,12.724 8.5,13 C8.5,13.276 8.724,13.5 9,13.5 Z"></path>
                        <path d="M9,19.5 L15,19.5 C15.276,19.5 15.5,19.276 15.5,19 C15.5,18.724 15.276,18.5 15,18.5 L9,18.5 C8.724,18.5 8.5,18.724 8.5,19 C8.5,19.276 8.724,19.5 9,19.5 Z"></path>
                    </g>
                </g>
            </g>
        </g>
    </g>
</svg>