<?xml version="1.0" encoding="UTF-8" standalone="no"?>
<svg width="10px" height="13px" viewBox="0 0 10 13" version="1.1" xmlns="http://www.w3.org/2000/svg" xmlns:xlink="http://www.w3.org/1999/xlink">
    <!-- Generator: Sketch 41 (35326) - http://www.bohemiancoding.com/sketch -->
    <title>Artboard Copy</title>
    <desc>Created with Sketch.</desc>
    <defs></defs>
    <g id="Page-1" stroke="none" stroke-width="1" fill="none" fill-rule="evenodd">
        <g id="Artboard-Copy" fill="#F1F1F1">
            <path d="M9.89019698,2.89663103 C9.56906224,0.991066538 7.83442389,-0.282723635 6.01551162,0.0539666319 C4.19596091,0.390016803 2.65987704,1.85647574 2.98101178,3.76332043 C3.04932474,4.17362168 3.24149483,4.81563753 3.46814062,5.27714644 L0.164219593,10.2206045 C0.0422777736,10.4030317 -0.0266736218,10.7320408 0.00971739246,10.9509535 L0.222317528,12.2125819 C0.259346981,12.4314946 0.459816779,12.5787165 0.669224721,12.541591 L1.63709801,12.3617241 C1.84650595,12.3239585 2.11209651,12.1389709 2.22701551,11.9527031 L3.53389982,9.83334666 L3.54539172,9.81926456 L4.43026796,9.65540009 L5.95613681,7.1724694 C6.4573113,7.26144268 7.17683188,7.23135819 7.60203215,7.15262644 C9.42030599,6.81593617 10.2113317,4.80347572 9.89019698,2.89663103 L9.89019698,2.89663103 Z M8.27813889,3.87405696 C7.77760283,4.62296877 7.26685176,4.09553002 6.55243869,3.57001157 C5.83802562,3.04641339 5.18937175,2.72380523 5.68926937,1.97489342 C6.18980542,1.22598161 7.17427812,1.04355437 7.88996807,1.56843274 C8.60501958,2.092671 8.77803651,3.12514515 8.27813889,3.87405696 L8.27813889,3.87405696 Z" id="Shape"></path>
        </g>
    </g>
</svg>