<?xml version="1.0" encoding="UTF-8" standalone="no"?>
<svg width="72px" height="30px" viewBox="0 0 72 30" version="1.1" xmlns="http://www.w3.org/2000/svg" xmlns:xlink="http://www.w3.org/1999/xlink">
    <!-- Generator: Sketch 3.8.3 (29802) - http://www.bohemiancoding.com/sketch -->
    <title>Artboard</title>
    <desc>Created with Sketch.</desc>
    <defs>
        <polygon id="path-1" points="0 0.160895957 0 27.2261158 8.61511696 27.2261158 8.61511696 0.160895957 0 0.160895957"></polygon>
        <polygon id="path-3" points="0.0629485852 14.0979768 10.0866164 14.0979768 10.0866164 0.196968875 0.0629485852 0.196968875"></polygon>
    </defs>
    <g id="Symbols" stroke="none" stroke-width="1" fill="none" fill-rule="evenodd">
        <g id="Artboard">
            <g id="Logo" transform="translate(0.227273, 0.000000)">
                <g id="Group-3" transform="translate(0.000000, 0.220421)">
                    <mask id="mask-2" fill="white">
                        <use xlink:href="#path-1"></use>
                    </mask>
                    <g id="Clip-2"></g>
                    <path d="M1.69256281,0.160895957 C2.14727851,0.160895957 2.51606368,0.52945735 2.51606368,0.984396822 L2.51606368,22.9186109 C2.51606368,23.9860291 3.27847331,24.7484388 4.30762561,24.7484388 C5.33677792,24.7484388 6.09918755,23.9860291 6.09918755,22.9186109 L6.09918755,0.984396822 C6.09918755,0.52945735 6.46797272,0.160895957 6.92268842,0.160895957 L7.79183987,0.160895957 C8.24655557,0.160895957 8.61511696,0.52945735 8.61511696,0.984396822 L8.61511696,22.8405126 C8.61511696,25.2523855 6.66691084,27.2511653 4.2552617,27.2258785 C1.80400396,27.2003678 -8.95109633e-05,25.3788197 -8.95109633e-05,22.9186109 L-8.95109633e-05,0.984396822 C-8.95109633e-05,0.52945735 0.368695659,0.160895957 0.823411354,0.160895957 L1.69256281,0.160895957 Z" id="Fill-1" fill="#F5F5F5" mask="url(#mask-2)"></path>
                </g>
                <path d="M12.8740039,0.381316705 L14.0866536,0.381316705 C14.3847251,0.381316705 14.6436356,0.586520589 14.7116639,0.876983666 L18.9412807,18.9458906 L18.9412807,1.02311031 C18.9412807,0.668646898 19.2286109,0.381316705 19.5830744,0.381316705 L20.5864923,0.381316705 C20.9411795,0.381316705 21.2285096,0.668646898 21.2285096,1.02311031 L21.2285096,26.4236365 C21.2285096,26.7780999 20.9411795,27.0654301 20.5864923,27.0654301 L19.3740663,27.0654301 C19.075771,27.0654301 18.8170843,26.8602262 18.749056,26.5699869 L14.5192154,8.50085622 L14.5192154,26.4236365 C14.5192154,26.7780999 14.2318852,27.0654301 13.8774218,27.0654301 L12.8740039,27.0654301 C12.5195404,27.0654301 12.2322102,26.7780999 12.2322102,26.4236365 L12.2322102,1.02311031 C12.2322102,0.668646898 12.5195404,0.381316705 12.8740039,0.381316705" id="Fill-4" fill="#F5F5F5"></path>
                <path d="M25.4912231,0.381316705 L26.7235653,0.381316705 C27.0780287,0.381316705 27.3653589,0.668646898 27.3653589,1.02311031 L27.3653589,26.4236365 C27.3653589,26.7780999 27.0780287,27.0654301 26.7235653,27.0654301 L25.4912231,27.0654301 C25.1367597,27.0654301 24.8494295,26.7780999 24.8494295,26.4236365 L24.8494295,1.02311031 C24.8494295,0.668646898 25.1367597,0.381316705 25.4912231,0.381316705" id="Fill-6" fill="#F5F5F5"></path>
                <g id="Group-10" transform="translate(30.881282, 14.989730)">
                    <mask id="mask-4" fill="white">
                        <use xlink:href="#path-3"></use>
                    </mask>
                    <g id="Clip-9"></g>
                    <path d="M8.67815506,8.14934666 L8.67815506,0.772748149 C8.67815506,0.454760451 8.42036348,0.196968875 8.10237578,0.196968875 L6.73778114,0.196968875 C6.42001722,0.196968875 6.16222565,0.454760451 6.16222565,0.772748149 L6.16222565,8.14934666 C6.16222565,9.2167649 5.39981601,9.97917453 4.37066371,9.97917453 C3.34128763,9.97917453 2.578878,9.2167649 2.578878,8.14934666 L2.578878,0.688160288 C2.578878,0.416942069 2.35912858,0.196968875 2.08768658,0.196968875 L0.554139998,0.196968875 C0.282921778,0.196968875 0.0629485852,0.416942069 0.0629485852,0.688160288 L0.0629485852,8.05222727 C0.0629485852,10.4647715 2.00399383,12.4803346 4.41653808,12.4566142 C5.08540875,12.4501247 5.71757993,12.2995225 6.2765759,12.0757451 L8.11155066,13.9107198 C8.36128625,14.1604554 8.76632336,14.1604554 9.01605894,13.9107198 L9.89930838,13.0274704 C10.1506104,12.7761684 10.1488202,12.3682222 9.89528038,12.1191579 L8.10618,10.3602675 C8.4874967,9.71220809 8.67815506,8.98806439 8.67815506,8.14934666" id="Fill-8" fill="#F5F5F5" mask="url(#mask-4)"></path>
                </g>
                <path d="M33.4601828,4.26944919 C33.4601828,3.20203095 34.2225925,2.43962131 35.2519685,2.43962131 C36.2808971,2.43962131 37.0435305,3.20203095 37.0435305,4.26944919 L37.0435305,13.2867837 C37.0435305,13.5944776 37.2928185,13.8439894 37.6005124,13.8439894 L39.0024779,13.8439894 C39.3099481,13.8439894 39.5594599,13.5944776 39.5594599,13.2867837 L39.5594599,4.38066656 C39.5594599,1.97147897 37.613044,-0.0223777409 35.2038564,0.000223777409 C32.7503609,0.0232728505 30.9442534,1.80767391 30.9442534,4.26944919 L30.9442534,13.2409093 C30.9442534,13.5738901 31.214129,13.8439894 31.5473335,13.8439894 L32.8571027,13.8439894 C33.1903073,13.8439894 33.4601828,13.5738901 33.4601828,13.2409093 L33.4601828,4.26944919 Z" id="Fill-11" fill="#F5F5F5"></path>
                <path d="M45.0734024,0.381316705 C45.4278658,0.381316705 45.715196,0.668646898 45.715196,1.02311031 L45.715196,23.1390317 C45.715196,24.2064499 46.4778294,24.9688595 47.5069817,24.9688595 C48.536134,24.9688595 49.2985436,24.2064499 49.2985436,23.1390317 L49.2985436,1.02311031 C49.2985436,0.668646898 49.5858738,0.381316705 49.9403372,0.381316705 L51.1726794,0.381316705 C51.5271429,0.381316705 51.814473,0.668646898 51.814473,1.02311031 L51.814473,23.0609333 C51.814473,25.4728062 49.8662669,27.4715861 47.4546178,27.4462992 C45.00336,27.4207886 43.1992666,25.5992405 43.1992666,23.1390317 L43.1992666,1.02311031 C43.1992666,0.668646898 43.4865968,0.381316705 43.8410602,0.381316705 L45.0734024,0.381316705 Z" id="Fill-13" fill="#F5F5F5"></path>
                <path d="M56.058255,0.381316705 L57.2905972,0.381316705 C57.6450606,0.381316705 57.9323908,0.668646898 57.9323908,1.02311031 L57.9323908,26.4236365 C57.9323908,26.7780999 57.6450606,27.0654301 57.2905972,27.0654301 L56.058255,27.0654301 C55.7037915,27.0654301 55.4164614,26.7780999 55.4164614,26.4236365 L55.4164614,1.02311031 C55.4164614,0.668646898 55.7037915,0.381316705 56.058255,0.381316705" id="Fill-15" fill="#E33217"></path>
                <path d="M65.8379767,24.5877442 C66.867129,24.5877442 67.6295386,23.8253346 67.6295386,22.7579163 L67.6295386,4.65074351 C67.6295386,3.58354905 66.867129,2.82091564 65.8379767,2.82091564 L64.046191,2.82091564 L64.046191,24.5877442 L65.8379767,24.5877442 Z M62.1720552,0.381294327 L65.8379767,0.381294327 C68.2169543,0.381294327 70.145468,2.30980804 70.145468,4.68878567 L70.145468,22.7579163 C70.145468,25.136894 68.2169543,27.0654077 65.8379767,27.0654077 L62.1720552,27.0654077 C61.8175918,27.0654077 61.5302616,26.7780775 61.5302616,26.4236141 L61.5302616,1.02308794 C61.5302616,0.668624521 61.8175918,0.381294327 62.1720552,0.381294327 L62.1720552,0.381294327 Z" id="Fill-17" fill="#E33217"></path>
                <path d="M35.3793203,18.2076713 L35.1119063,18.2076713 C34.7688555,18.2076713 34.4880148,17.9268306 34.4880148,17.5837798 L34.4880148,11.3347957 C34.4880148,10.9917449 34.7688555,10.7109043 35.1119063,10.7109043 L35.3793203,10.7109043 C35.722371,10.7109043 36.0032117,10.9917449 36.0032117,11.3347957 L36.0032117,17.5837798 C36.0032117,17.9268306 35.722371,18.2076713 35.3793203,18.2076713" id="Fill-19" fill="#E33217"></path>
            </g>
        </g>
    </g>
</svg>