<?xml version="1.0" encoding="UTF-8" standalone="no"?>
<svg width="80px" height="33px" viewBox="0 0 80 33" version="1.1" xmlns="http://www.w3.org/2000/svg" xmlns:xlink="http://www.w3.org/1999/xlink">
    <!-- Generator: Sketch 41 (35326) - http://www.bohemiancoding.com/sketch -->
    <title>Artboard</title>
    <desc>Created with Sketch.</desc>
    <defs></defs>
    <g id="Page-1" stroke="none" stroke-width="1" fill="none" fill-rule="evenodd">
        <g id="Artboard">
            <g id="logo2">
                <g id="Group-24">
                    <g id="Page-1">
                        <g id="Desktop-1">
                            <g id="Group-24">
                                <path d="M2.07806018,0.585588183 C2.59317268,0.585588183 3.01072367,0.996214962 3.01072367,1.5027854 L3.01072367,25.9331177 C3.01072367,27.1218535 3.874051,27.9708644 5.03988038,27.9708644 C6.20540292,27.9708644 7.06903708,27.1218535 7.06903708,25.9331177 L7.06903708,1.5027854 C7.06903708,0.996214962 7.48658808,0.585588183 8.00170058,0.585588183 L8.98590599,0.585588183 C9.50101848,0.585588183 9.91826273,0.996214962 9.91826273,1.5027854 L9.91826273,25.8462253 C9.91826273,28.532346 7.71177721,30.7583595 4.98036172,30.7303005 C2.20415383,30.7013364 0.160884454,28.6732444 0.160884454,25.9331177 L0.160884454,1.5027854 C0.160884454,0.996214962 0.578742246,0.585588183 1.09354795,0.585588183 L2.07806018,0.585588183 Z" id="Fill-6" fill="#3A3D3B"></path>
                                <path d="M14.741851,0.585588183 L16.1153821,0.585588183 C16.452859,0.585588183 16.7458504,0.813982357 16.8231633,1.13771677 L21.613188,21.2626529 L21.613188,1.30033825 C21.613188,0.905702079 21.9390066,0.585588183 22.3406042,0.585588183 L23.476981,0.585588183 C23.8785785,0.585588183 24.2040904,0.905702079 24.2040904,1.30033825 L24.2040904,29.591045 C24.2040904,29.9859829 23.8785785,30.3060967 23.476981,30.3060967 L22.1037567,30.3060967 C21.765973,30.3060967 21.4726749,30.0774009 21.3959756,29.7542699 L16.6053373,9.62903203 L16.6053373,29.591045 C16.6053373,29.9859829 16.2798254,30.3060967 15.8782279,30.3060967 L14.741851,30.3060967 C14.3402535,30.3060967 14.0150485,29.9859829 14.0150485,29.591045 L14.0150485,1.30033825 C14.0150485,0.905702079 14.3402535,0.585588183 14.741851,0.585588183" id="Fill-8" fill="#3A3D3B"></path>
                                <path d="M29.0318819,0.585588183 L30.4275023,0.585588183 C30.8287931,0.585588183 31.1543049,0.905702079 31.1543049,1.30033825 L31.1543049,29.591045 C31.1543049,29.9859829 30.8287931,30.3060967 30.4275023,30.3060967 L29.0318819,30.3060967 C28.6302843,30.3060967 28.3047725,29.9859829 28.3047725,29.591045 L28.3047725,1.30033825 C28.3047725,0.905702079 28.6302843,0.585588183 29.0318819,0.585588183" id="Fill-10" fill="#3A3D3B"></path>
                                <path d="M44.9652719,25.9330272 L44.9652719,17.7171728 C44.9652719,17.3629657 44.6732009,17.0757382 44.313021,17.0757382 L42.7676835,17.0757382 C42.4075036,17.0757382 42.1157395,17.3629657 42.1157395,17.7171728 L42.1157395,25.9330272 C42.1157395,27.121763 41.2521053,27.9707739 40.0865828,27.9707739 C38.9207534,27.9707739 38.0568125,27.121763 38.0568125,25.9330272 L38.0568125,17.6227377 C38.0568125,17.3207264 37.8083068,17.0757382 37.5008959,17.0757382 L35.764117,17.0757382 C35.4567062,17.0757382 35.2075869,17.3207264 35.2075869,17.6227377 L35.2075869,25.8250151 C35.2075869,28.5120409 37.4060956,30.7570621 40.1387383,30.73021 C40.8959138,30.7229689 41.6119785,30.5555201 42.2452079,30.3063079 L44.3231453,32.3497872 C44.6063192,32.6282651 45.0646742,32.6282651 45.347848,32.3497872 L46.3483137,31.3659121 C46.6330215,31.0862273 46.6305671,30.6318526 46.3434049,30.3542798 L44.3173162,28.395581 C44.7489799,27.6738916 44.9652719,26.8671201 44.9652719,25.9330272" id="Fill-12" fill="#3A3D3B"></path>
                                <path d="M38.057242,4.91602622 C38.057242,3.72729036 38.9205693,2.87827951 40.0863987,2.87827951 C41.2519213,2.87827951 42.1158622,3.72729036 42.1158622,4.91602622 L42.1158622,14.9599392 C42.1158622,15.3023795 42.3978088,15.5802541 42.7463304,15.5802541 L44.3343128,15.5802541 C44.6825276,15.5802541 44.9653946,15.3023795 44.9653946,14.9599392 L44.9653946,5.04002887 C44.9653946,2.3569253 42.7604431,0.136040863 40.0320956,0.161082761 C37.2531265,0.186728078 35.2077096,2.17408928 35.2077096,4.91602622 L35.2077096,14.9086485 C35.2077096,15.2794496 35.5135864,15.5802541 35.8909469,15.5802541 L37.3740046,15.5802541 C37.751672,15.5802541 38.057242,15.2794496 38.057242,14.9086485 L38.057242,4.91602622 Z" id="Fill-14" fill="#3A3D3B"></path>
                                <path d="M51.2102517,0.585588183 C51.6118492,0.585588183 51.9367475,0.905702079 51.9367475,1.30033825 L51.9367475,25.9331177 C51.9367475,27.1218535 52.8006884,27.9708644 53.966211,27.9708644 C55.1317335,27.9708644 55.9953677,27.1218535 55.9953677,25.9331177 L55.9953677,1.30033825 C55.9953677,0.905702079 56.3208794,0.585588183 56.7224772,0.585588183 L58.1180977,0.585588183 C58.5193881,0.585588183 58.8448999,0.905702079 58.8448999,1.30033825 L58.8448999,25.8462253 C58.8448999,28.532346 56.6384143,30.7583595 53.9069991,30.7303005 C51.1304844,30.7013364 49.0875218,28.6732444 49.0875218,25.9331177 L49.0875218,1.30033825 C49.0875218,0.905702079 49.4130337,0.585588183 49.8140176,0.585588183 L51.2102517,0.585588183 Z" id="Fill-16" fill="#3A3D3B"></path>
                                <path d="M63.6511239,0.585588183 L65.0467443,0.585588183 C65.4483415,0.585588183 65.7738538,0.905702079 65.7738538,1.30033825 L65.7738538,29.591045 C65.7738538,29.9859829 65.4483415,30.3060967 65.0467443,30.3060967 L63.6511239,30.3060967 C63.2495261,30.3060967 62.9243211,29.9859829 62.9243211,29.591045 L62.9243211,1.30033825 C62.9243211,0.905702079 63.2495261,0.585588183 63.6511239,0.585588183" id="Fill-18" fill="#E33217"></path>
                                <path d="M74.7275763,27.5464796 C75.893099,27.5464796 76.7564265,26.6971671 76.7564265,25.5084312 L76.7564265,5.34065233 C76.7564265,4.15221817 75.893099,3.30290562 74.7275763,3.30290562 L72.6984199,3.30290562 L72.6984199,27.5464796 L74.7275763,27.5464796 Z M70.5756899,0.585708868 L74.7275763,0.585708868 C77.4218698,0.585708868 79.6059586,2.73357958 79.6059586,5.38319338 L79.6059586,25.5084312 C79.6059586,28.158045 77.4218698,30.3062174 74.7275763,30.3062174 L70.5756899,30.3062174 C70.1740927,30.3062174 69.8488872,29.9858018 69.8488872,29.5911657 L69.8488872,1.30045893 C69.8488872,0.905521054 70.1740927,0.585708868 70.5756899,0.585708868 L70.5756899,0.585708868 Z" id="Fill-20" fill="#E33217"></path>
                                <path d="M40.2308695,20.4403736 L39.9280606,20.4403736 C39.5393486,20.4403736 39.2211999,20.1275007 39.2211999,19.7455363 L39.2211999,12.7853973 C39.2211999,12.4034329 39.5393486,12.09056 39.9280606,12.09056 L40.2308695,12.09056 C40.6192748,12.09056 40.9374234,12.4034329 40.9374234,12.7853973 L40.9374234,19.7455363 C40.9374234,20.1275007 40.6192748,20.4403736 40.2308695,20.4403736" id="Fill-22" fill="#3A3D3B"></path>
                            </g>
                        </g>
                    </g>
                </g>
            </g>
        </g>
    </g>
</svg>