<?xml version="1.0" encoding="UTF-8" standalone="no"?>
<svg width="12px" height="17px" viewBox="0 0 12 17" version="1.1" xmlns="http://www.w3.org/2000/svg" xmlns:xlink="http://www.w3.org/1999/xlink">
    <!-- Generator: Sketch 41 (35326) - http://www.bohemiancoding.com/sketch -->
    <title>Artboard Copy 2</title>
    <desc>Created with Sketch.</desc>
    <defs></defs>
    <g id="Page-1" stroke="none" stroke-width="1" fill="none" fill-rule="evenodd">
        <g id="Artboard-Copy-2" fill="#F1F1F1">
            <g id="Group">
                <path d="M11.4352941,13.6941176 L0.564705882,13.6941176 C0.247058824,13.6941176 0,13.4470588 0,13.1294118 L0,10.2705882 C0,9.95294118 0.247058824,9.70588235 0.564705882,9.70588235 L11.4352941,9.70588235 C11.7529412,9.70588235 12,9.95294118 12,10.2705882 L12,13.1294118 C12,13.4117647 11.7529412,13.6941176 11.4352941,13.6941176 Z M1.12941176,12.5294118 L10.8705882,12.5294118 L10.8705882,10.8352941 L1.12941176,10.8352941 L1.12941176,12.5294118 Z" id="Shape"></path>
                <path d="M11.2588235,16.0235294 L0.564705882,16.0235294 C0.247058824,16.0235294 0,15.7764706 0,15.4588235 C0,15.1411765 0.247058824,14.8941176 0.564705882,14.8941176 L11.2588235,14.8941176 C11.5764706,14.8941176 11.8235294,15.1411765 11.8235294,15.4588235 C11.8235294,15.7764706 11.5764706,16.0235294 11.2588235,16.0235294 Z" id="Shape"></path>
                <path d="M8.15294118,10.8352941 C8.08235294,10.8352941 8.04705882,10.8352941 7.97647059,10.8 C6.84705882,10.4470588 6.10588235,9.45882353 6.10588235,8.29411765 C6.10588235,7.65882353 6.35294118,7.02352941 6.81176471,6.52941176 C6.88235294,6.45882353 6.95294118,6.42352941 7.02352941,6.38823529 C8.01176471,5.96470588 8.64705882,5.01176471 8.64705882,3.95294118 C8.64705882,2.50588235 7.44705882,1.34117647 6,1.34117647 C4.55294118,1.34117647 3.35294118,2.50588235 3.35294118,3.95294118 C3.35294118,4.69411765 3.67058824,5.36470588 4.23529412,5.89411765 C4.23529412,5.89411765 4.23529412,5.89411765 4.27058824,5.92941176 C4.30588235,5.92941176 4.30588235,5.96470588 4.30588235,5.96470588 C4.48235294,6.10588235 4.65882353,6.21176471 4.83529412,6.31764706 C4.87058824,6.35294118 4.94117647,6.38823529 4.97647059,6.42352941 C5.50588235,6.91764706 5.82352941,7.58823529 5.82352941,8.29411765 C5.82352941,9.38823529 5.11764706,10.3764706 4.05882353,10.7647059 C3.77647059,10.8705882 3.42352941,10.7294118 3.31764706,10.4117647 C3.21176471,10.1294118 3.35294118,9.77647059 3.67058824,9.67058824 C4.27058824,9.45882353 4.65882353,8.89411765 4.65882353,8.25882353 C4.65882353,7.8 4.44705882,7.48235294 4.23529412,7.27058824 C4.02352941,7.16470588 3.81176471,7.02352941 3.63529412,6.84705882 L3.63529412,6.84705882 C3.52941176,6.81176471 3.45882353,6.74117647 3.38823529,6.63529412 C2.64705882,5.92941176 2.25882353,4.94117647 2.25882353,3.95294118 C2.25882353,1.87058824 3.95294118,0.176470588 6.03529412,0.176470588 C8.11764706,0.176470588 9.81176471,1.87058824 9.81176471,3.95294118 C9.81176471,5.43529412 8.96470588,6.77647059 7.62352941,7.37647059 C7.44705882,7.58823529 7.30588235,7.87058824 7.30588235,8.25882353 C7.30588235,8.92941176 7.72941176,9.49411765 8.36470588,9.67058824 C8.68235294,9.77647059 8.82352941,10.0941176 8.75294118,10.3764706 C8.64705882,10.6588235 8.4,10.8352941 8.15294118,10.8352941 Z" id="Shape"></path>
            </g>
        </g>
    </g>
</svg>